<svg width="479" height="312" viewBox="0 0 479 312" fill="none" xmlns="http://www.w3.org/2000/svg">
<g clip-path="url(#clip0_190_860)">
<path d="M478.259 272.939H278.991C278.795 272.939 278.606 272.861 278.467 272.723C278.329 272.584 278.25 272.396 278.25 272.2C278.25 272.003 278.329 271.815 278.467 271.677C278.606 271.538 278.795 271.46 278.991 271.46H478.259C478.456 271.46 478.644 271.538 478.783 271.677C478.922 271.815 479 272.003 479 272.2C479 272.396 478.922 272.584 478.783 272.723C478.644 272.861 478.456 272.939 478.259 272.939Z" fill="#3F3D56"/>
<path d="M380.128 182.624C391.467 182.624 400.658 173.447 400.658 162.126C400.658 150.804 391.467 141.627 380.128 141.627C368.789 141.627 359.597 150.804 359.597 162.126C359.597 173.447 368.789 182.624 380.128 182.624Z" fill="#2F2E41"/>
<path d="M391.559 278.444L393.14 285.894L422.673 283.35L420.339 272.354L391.559 278.444Z" fill="#A0616A"/>
<path d="M389.261 301.728L384.291 278.313L393.352 276.396L396.401 290.764C396.91 293.163 396.444 295.666 395.105 297.722C393.766 299.778 391.664 301.219 389.261 301.728Z" fill="#2F2E41"/>
<path d="M373.056 278.047L369.732 284.901L341.671 275.362L346.577 265.246L373.056 278.047Z" fill="#A0616A"/>
<path d="M365.397 288.848L371.807 275.629L380.143 279.659L369.697 301.201C367.486 300.132 365.791 298.23 364.985 295.913C364.178 293.597 364.327 291.055 365.397 288.848Z" fill="#2F2E41"/>
<path d="M317.773 264.509C318.733 264.688 319.721 264.654 320.667 264.41C321.613 264.166 322.494 263.718 323.248 263.097C324.002 262.476 324.61 261.698 325.03 260.817C325.45 259.937 325.672 258.975 325.679 257.999L371.95 215.405L360.459 206.519L318.566 251.208C316.924 251.304 315.374 251.998 314.21 253.159C313.047 254.32 312.35 255.867 312.252 257.506C312.154 259.146 312.662 260.764 313.68 262.055C314.697 263.346 316.154 264.219 317.773 264.509Z" fill="#A0616A"/>
<path d="M380.662 184.792C389.101 184.792 395.942 177.962 395.942 169.536C395.942 161.11 389.101 154.279 380.662 154.279C372.223 154.279 365.381 161.11 365.381 169.536C365.381 177.962 372.223 184.792 380.662 184.792Z" fill="#A0616A"/>
<path d="M347.154 220.515L351.509 207.471L373.906 189.457C373.906 189.457 385.105 190.699 399.414 182.624L404.083 182.757C404.879 182.78 405.661 182.963 406.384 183.296C407.107 183.63 407.754 184.106 408.286 184.697C408.819 185.288 409.226 185.98 409.483 186.732C409.739 187.485 409.84 188.281 409.779 189.074C408.603 204.285 406.329 243.455 412.79 256.854C412.79 256.854 378.572 265.55 363.019 247.536C363.019 247.536 369.24 240.703 363.019 228.28L354.931 230.765L347.154 220.515Z" fill="#6C63FF"/>
<path d="M364.886 247.536C364.886 247.536 324.447 243.809 320.092 255.611C315.737 267.413 320.714 273.004 328.179 275.489C335.645 277.973 353.687 281.079 353.687 281.079L361.775 271.14L382.928 272.383C382.928 272.383 406.497 286.032 413.014 300.63C414.412 303.789 416.642 306.511 419.466 308.506C422.29 310.501 425.602 311.694 429.052 311.959C434.276 312.322 438.92 310.352 438.92 302.199C438.92 283.564 412.79 256.854 412.79 256.854L364.886 247.536Z" fill="#2F2E41"/>
<path d="M334.089 265.861C334.089 265.861 344.666 262.755 361.464 270.83L334.089 265.861Z" fill="#2F2E41"/>
<path d="M365.418 159.806C371.386 163.443 378.113 165.656 385.078 166.273L383.005 163.794C384.514 164.351 386.102 164.666 387.709 164.727C388.514 164.75 389.313 164.585 390.043 164.244C390.772 163.903 391.411 163.397 391.909 162.765C392.315 162.108 392.556 161.364 392.612 160.594C392.668 159.824 392.537 159.053 392.229 158.345C391.598 156.933 390.615 155.706 389.374 154.78C387.175 153.043 384.579 151.876 381.819 151.384C379.058 150.891 376.218 151.088 373.553 151.957C371.724 152.503 370.086 153.552 368.827 154.984C368.208 155.705 367.778 156.568 367.576 157.497C367.374 158.425 367.406 159.388 367.668 160.301" fill="#2F2E41"/>
<path d="M382.061 143.902C377.241 139.022 371.409 135.257 364.975 132.871C360.844 131.343 356.349 130.399 352.031 131.267C347.713 132.134 343.63 135.117 342.425 139.347C341.44 142.805 342.457 146.53 343.986 149.786C345.514 153.042 347.555 156.061 348.791 159.439C350.053 162.885 350.432 166.591 349.895 170.221C349.358 173.851 347.921 177.289 345.716 180.224C343.51 183.159 340.605 185.497 337.265 187.027C333.925 188.556 330.255 189.229 326.588 188.983C330.83 189.551 334.741 191.541 338.888 192.601C343.035 193.661 347.93 193.589 351.011 190.622C354.272 187.484 354.337 182.381 354.179 177.862C353.945 171.144 353.711 164.426 353.476 157.708C353.357 154.282 353.255 150.746 354.492 147.549C355.73 144.351 358.671 141.551 362.104 141.58C364.706 141.602 367.009 143.176 369.096 144.728C371.183 146.28 373.392 147.936 375.984 148.167C378.576 148.398 381.535 146.483 381.341 143.892" fill="#2F2E41"/>
<path d="M273.12 149.702H5.59927C4.11476 149.7 2.69154 149.111 1.64183 148.063C0.59213 147.015 0.00167137 145.594 0 144.111V5.59053C0.00172395 4.10836 0.592198 2.68739 1.64189 1.63934C2.69158 0.591284 4.11478 0.00172126 5.59927 0H273.12C274.604 0.0016704 276.027 0.591216 277.077 1.63928C278.127 2.68735 278.717 4.10834 278.719 5.59053V144.111C278.717 145.594 278.127 147.015 277.077 148.063C276.028 149.111 274.604 149.7 273.12 149.702ZM5.59927 1.24234C4.44465 1.24363 3.33769 1.70216 2.52126 2.51732C1.70482 3.33249 1.24558 4.43772 1.24428 5.59053V144.111C1.24563 145.264 1.7049 146.369 2.52132 147.185C3.33775 148 4.44467 148.458 5.59927 148.46H273.12C274.274 148.458 275.381 148 276.198 147.185C277.014 146.369 277.473 145.264 277.475 144.111V5.59053C277.473 4.43773 277.014 3.33254 276.198 2.51739C275.381 1.70224 274.274 1.24368 273.12 1.24234H5.59927Z" fill="#3F3D56"/>
<path d="M87.0997 66.1551H44.7941C43.3096 66.1533 41.8864 65.5638 40.8367 64.5157C39.787 63.4677 39.1965 62.0467 39.1948 60.5645V25.779C39.1965 24.2968 39.787 22.8759 40.8367 21.8278C41.8864 20.7798 43.3096 20.1902 44.7941 20.1885H87.0997C88.5842 20.1901 90.0074 20.7797 91.0571 21.8278C92.1068 22.8758 92.6972 24.2968 92.6989 25.779V60.5645C92.6972 62.0467 92.1068 63.4677 91.0571 64.5158C90.0074 65.5639 88.5842 66.1534 87.0997 66.1551ZM44.7941 21.4308C43.6395 21.4321 42.5325 21.8906 41.7161 22.7058C40.8996 23.521 40.4404 24.6262 40.4391 25.779V60.5645C40.4404 61.7173 40.8996 62.8226 41.7161 63.6377C42.5325 64.4529 43.6395 64.9114 44.7941 64.9127H87.0997C88.2543 64.9114 89.3612 64.4528 90.1776 63.6377C90.994 62.8225 91.4533 61.7173 91.4546 60.5645V25.779C91.4533 24.6262 90.994 23.521 90.1776 22.7059C89.3612 21.8907 88.2543 21.4322 87.0997 21.4308H44.7941Z" fill="#3F3D56"/>
<path d="M37.0175 79.1992C35.945 79.1992 34.9165 79.6246 34.1581 80.3818C33.3997 81.139 32.9736 82.166 32.9736 83.2368C32.9736 84.3077 33.3997 85.3346 34.1581 86.0918C34.9165 86.849 35.945 87.2744 37.0175 87.2744H241.702C242.774 87.2744 243.803 86.849 244.561 86.0918C245.32 85.3346 245.746 84.3077 245.746 83.2368C245.746 82.166 245.32 81.139 244.561 80.3818C243.803 79.6246 242.774 79.1992 241.702 79.1992H37.0175Z" fill="#E6E6E6"/>
<path d="M106.075 36.96C105.003 36.96 103.974 37.3854 103.216 38.1425C102.457 38.8997 102.031 39.9267 102.031 40.9976C102.031 42.0684 102.457 43.0954 103.216 43.8526C103.974 44.6098 105.003 45.0352 106.075 45.0352H193.797C194.87 45.0352 195.898 44.6098 196.656 43.8526C197.415 43.0954 197.841 42.0684 197.841 40.9976C197.841 39.9267 197.415 38.8997 196.656 38.1425C195.898 37.3854 194.87 36.96 193.797 36.96H106.075Z" fill="#6C63FF"/>
<path d="M106.075 58.0791C105.003 58.0791 103.974 58.5045 103.216 59.2617C102.457 60.0189 102.031 61.0459 102.031 62.1167C102.031 63.1875 102.457 64.2145 103.216 64.9717C103.974 65.7289 105.003 66.1543 106.075 66.1543H239.835C240.908 66.1543 241.936 65.7289 242.695 64.9717C243.453 64.2145 243.879 63.1875 243.879 62.1167C243.879 61.0459 243.453 60.0189 242.695 59.2617C241.936 58.5045 240.908 58.0791 239.835 58.0791H106.075Z" fill="#6C63FF"/>
<path d="M37.0175 100.319C35.945 100.319 34.9165 100.745 34.1581 101.502C33.3997 102.259 32.9736 103.286 32.9736 104.357C32.9736 105.428 33.3997 106.455 34.1581 107.212C34.9165 107.969 35.945 108.395 37.0175 108.395H241.702C242.774 108.395 243.803 107.969 244.561 107.212C245.32 106.455 245.746 105.428 245.746 104.357C245.746 103.286 245.32 102.259 244.561 101.502C243.803 100.745 242.774 100.319 241.702 100.319H37.0175Z" fill="#E6E6E6"/>
<path d="M37.0175 121.438C35.945 121.438 34.9165 121.864 34.1581 122.621C33.3997 123.378 32.9736 124.405 32.9736 125.476C32.9736 126.547 33.3997 127.574 34.1581 128.331C34.9165 129.088 35.945 129.514 37.0175 129.514H241.702C242.774 129.514 243.803 129.088 244.561 128.331C245.32 127.574 245.746 126.547 245.746 125.476C245.746 124.405 245.32 123.378 244.561 122.621C243.803 121.864 242.774 121.438 241.702 121.438H37.0175Z" fill="#E6E6E6"/>
<path d="M65.4466 60.5238C75.0001 60.5238 82.7448 52.7912 82.7448 43.2526C82.7448 33.714 75.0001 25.9814 65.4466 25.9814C55.8931 25.9814 48.1484 33.714 48.1484 43.2526C48.1484 52.7912 55.8931 60.5238 65.4466 60.5238Z" fill="#CCCCCC"/>
<path d="M65.8965 62.3506C73.007 62.3506 78.7711 56.5954 78.7711 49.4961C78.7711 42.3967 73.007 36.6416 65.8965 36.6416C58.7861 36.6416 53.022 42.3967 53.022 49.4961C53.022 56.5954 58.7861 62.3506 65.8965 62.3506Z" fill="#E6E6E6"/>
<path d="M53.0532 41.2985C58.0811 44.363 63.7495 46.2278 69.6171 46.7478L67.8711 44.659C69.1424 45.1283 70.4801 45.3935 71.8345 45.4448C72.5126 45.4644 73.1859 45.3251 73.8004 45.0379C74.4148 44.7508 74.9533 44.3239 75.3726 43.7914C75.715 43.2385 75.9184 42.611 75.9655 41.9626C76.0126 41.3142 75.9018 40.664 75.6428 40.0676C75.1107 38.8779 74.2825 37.844 73.2371 37.0642C71.3841 35.6007 69.1971 34.6176 66.8713 34.2025C64.5454 33.7875 62.1528 33.9534 59.9067 34.6856C58.366 35.1453 56.9862 36.029 55.9253 37.2355C55.4038 37.8433 55.0416 38.5708 54.8712 39.3528C54.7007 40.1348 54.7275 40.9469 54.949 41.716" fill="#CCCCCC"/>
<path d="M387.738 245.293C388.082 245.295 388.426 245.325 388.765 245.381L409.89 222.928L407.736 215.76L418.147 211.101L424.608 226.871L394.216 251.009C394.379 252.323 394.138 253.655 393.524 254.829C392.911 256.002 391.954 256.962 390.781 257.579C389.608 258.197 388.275 258.443 386.958 258.286C385.642 258.128 384.404 257.574 383.411 256.697C382.417 255.821 381.715 254.663 381.396 253.377C381.078 252.092 381.159 250.741 381.629 249.503C382.099 248.265 382.935 247.199 384.026 246.447C385.117 245.695 386.412 245.292 387.738 245.293Z" fill="#A0616A"/>
<path d="M401.592 183.556C402.316 183.234 403.098 183.063 403.891 183.05C404.683 183.038 405.47 183.186 406.204 183.486C406.938 183.785 407.603 184.229 408.161 184.791C408.718 185.354 409.156 186.023 409.448 186.759L420.256 213.993L403.458 225.174L401.592 183.556Z" fill="#6C63FF"/>
<path d="M383.989 247.606C373.568 241.465 361.53 238.615 349.456 239.43C337.383 240.246 325.839 244.689 316.341 252.175C315.649 252.847 314.876 253.431 314.041 253.915C313.3 254.236 312.417 253.97 311.677 253.784C306.782 252.556 301.645 250.665 298.042 246.991C294.931 243.82 292.756 238.966 294.323 234.547C294.986 232.869 296.16 231.442 297.679 230.467C299.199 229.491 300.986 229.016 302.79 229.109C307.101 229.494 308.864 234.273 307.923 238.017C306.81 242.442 302.498 245.402 298.403 246.822C290.857 249.441 282.104 247.615 275.867 242.743C272.569 240.189 270.07 236.747 268.664 232.822C266.952 227.991 266.846 222.752 267.734 217.74C269.593 207.258 275.283 198.265 280.625 189.258C285.598 180.874 290.565 171.893 291.188 161.963C291.683 154.064 289.609 145.336 283.709 139.717C282.314 138.389 280.732 137.273 279.013 136.404C277.944 135.863 276.998 137.47 278.071 138.013C285.703 141.871 289.097 150.426 289.371 158.583C289.712 168.756 285.048 178.002 280.043 186.57C274.544 195.984 268.395 205.227 266.159 216.074C265.098 221.221 264.927 226.624 266.357 231.719C267.553 236.062 269.96 239.976 273.296 243.007C279.518 248.616 288.531 251.169 296.737 249.245C301.141 248.213 305.543 245.819 308.123 242.017C310.627 238.327 310.877 232.896 307.663 229.518C304.817 226.527 300.247 226.728 296.918 228.77C293.092 231.117 291.429 235.3 292.124 239.672C292.9 244.554 296.329 248.657 300.413 251.242C302.738 252.67 305.232 253.805 307.838 254.62C309.138 255.061 310.461 255.431 311.801 255.729C312.685 255.974 313.619 255.973 314.503 255.728C315.347 255.358 316.118 254.841 316.781 254.202C317.893 253.287 319.046 252.424 320.229 251.603C322.52 250.014 324.92 248.588 327.412 247.335C334.867 243.572 343.051 241.466 351.399 241.163C359.747 240.86 368.062 242.367 375.771 245.58C378.279 246.619 380.71 247.833 383.047 249.215C383.26 249.33 383.509 249.357 383.742 249.292C383.975 249.227 384.174 249.074 384.296 248.865C384.419 248.656 384.455 248.408 384.397 248.173C384.34 247.938 384.193 247.735 383.989 247.606Z" fill="#3F3D56"/>
</g>
<defs>
<clipPath id="clip0_190_860">
<rect width="479" height="312" fill="white"/>
</clipPath>
</defs>
</svg>
